<?xml version="1.0" encoding="UTF-8"?>
<svg xmlns="http://www.w3.org/2000/svg" viewBox="0 0 1654 1169" font-family="system-ui,-apple-system,BlinkMacSystemFont,sans-serif">
<defs>
  <marker id="ah-g"  viewBox="0 0 10 10" refX="9" refY="5" markerWidth="7" markerHeight="7" orient="auto"><path d="M0,0 L10,5 L0,10 Z" fill="#666666"/></marker>
  <marker id="ah-b"  viewBox="0 0 10 10" refX="9" refY="5" markerWidth="7" markerHeight="7" orient="auto"><path d="M0,0 L10,5 L0,10 Z" fill="#6c8ebf"/></marker>
  <marker id="ah-gr" viewBox="0 0 10 10" refX="9" refY="5" markerWidth="7" markerHeight="7" orient="auto"><path d="M0,0 L10,5 L0,10 Z" fill="#82b366"/></marker>
  <marker id="ah-r"  viewBox="0 0 10 10" refX="9" refY="5" markerWidth="7" markerHeight="7" orient="auto"><path d="M0,0 L10,5 L0,10 Z" fill="#b85450"/></marker>
</defs>
<rect width="1654" height="1169" fill="white"/>
<line x1="40" y1="488" x2="1614" y2="488" stroke="#ccc" stroke-width="1" stroke-dasharray="6 4"/>
<text x="40" y="34" font-size="13" font-weight="bold" fill="#333">SYSTEM ARCHITECTURE</text>
<text x="40" y="516" font-size="13" font-weight="bold" fill="#333">USER JOURNEY — UNDERWRITER REVIEWING AN APPLICATION</text>
<text x="40" y="65" font-size="9" font-style="italic" fill="#aaa">Client</text>
<text x="40" y="225" font-size="9" font-style="italic" fill="#aaa">API Layer</text>
<text x="40" y="372" font-size="9" font-style="italic" fill="#aaa">Services</text>
<rect x="130" y="55" width="205" height="65" rx="6" fill="#dae8fc" stroke="#6c8ebf" stroke-width="1.5"/>
<text x="232.5" y="82.5" text-anchor="middle" font-size="10" font-weight="bold" fill="#333">Underwriter Dashboard</text>
<text x="232.5" y="97.5" text-anchor="middle" font-size="10" fill="#555">React.js · Redux · Highcharts</text>
<rect x="375" y="55" width="200" height="65" rx="6" fill="#dae8fc" stroke="#6c8ebf" stroke-width="1.5"/>
<text x="475" y="82.5" text-anchor="middle" font-size="10" font-weight="bold" fill="#333">Highcharts Visualisations</text>
<text x="475" y="97.5" text-anchor="middle" font-size="10" fill="#555">Revenue · Debt · Risk charts</text>
<rect x="235" y="218" width="290" height="55" rx="6" fill="#fff2cc" stroke="#d6b656" stroke-width="1.5"/>
<text x="380" y="240.5" text-anchor="middle" font-size="10" font-weight="bold" fill="#333">REST API</text>
<text x="380" y="255.5" text-anchor="middle" font-size="10" fill="#555">Auth · Application management · Decisions</text>
<rect x="160" y="371" width="140" height="47" fill="#d5e8d4" stroke="#82b366" stroke-width="1.5"/>
<ellipse cx="230" cy="371" rx="69" ry="9" fill="#d5e8d4" stroke="#82b366" stroke-width="1.5"/>
<ellipse cx="230" cy="418" rx="69" ry="9" fill="#d5e8d4" stroke="#82b366" stroke-width="1.5"/>
<text x="230" y="389.5" text-anchor="middle" font-size="10" font-weight="bold" fill="#333">MongoDB</text>
<text x="230" y="404.5" text-anchor="middle" font-size="10" fill="#555">Applications · Decisions</text>
<rect x="340" y="362" width="150" height="65" rx="6" fill="#d5e8d4" stroke="#82b366" stroke-width="1.5"/>
<text x="415" y="389.5" text-anchor="middle" font-size="10" font-weight="bold" fill="#333">Credit Engine</text>
<text x="415" y="404.5" text-anchor="middle" font-size="10" fill="#555">Risk score · Model output</text>
<rect x="530" y="362" width="130" height="65" rx="6" fill="#d5e8d4" stroke="#82b366" stroke-width="1.5"/>
<text x="595" y="389.5" text-anchor="middle" font-size="10" font-weight="bold" fill="#333">Notification</text>
<text x="595" y="404.5" text-anchor="middle" font-size="10" fill="#555">MSME alerts</text>
<line x1="232" y1="120" x2="380" y2="218" stroke="#6c8ebf" stroke-width="1.5" marker-end="url(#ah-b)"/>
<line x1="475" y1="120" x2="380" y2="218" stroke="#6c8ebf" stroke-width="1.5" marker-end="url(#ah-b)"/>
<path d="M380,273 L380,318 L230,318 L230,362" fill="none" stroke="#82b366" stroke-width="1.5" marker-end="url(#ah-gr)"/>
<path d="M380,273 L380,318 L415,318 L415,362" fill="none" stroke="#82b366" stroke-width="1.5" marker-end="url(#ah-gr)"/>
<path d="M380,273 L380,318 L595,318 L595,362" fill="none" stroke="#82b366" stroke-width="1.5" marker-end="url(#ah-gr)"/>
<ellipse cx="97.5" cy="585.5" rx="57.5" ry="27.5" fill="#d5e8d4" stroke="#82b366" stroke-width="1.5"/>
<text x="97.5" y="580.5" text-anchor="middle" font-size="10" fill="#333">Underwriter</text>
<text x="97.5" y="595.5" text-anchor="middle" font-size="10" fill="#333">logs in</text>
<rect x="195" y="558" width="130" height="55" rx="6" fill="#dae8fc" stroke="#6c8ebf" stroke-width="1.5"/>
<text x="260" y="580.5" text-anchor="middle" font-size="10" font-weight="bold" fill="#333">View application</text>
<text x="260" y="595.5" text-anchor="middle" font-size="10" fill="#555">queue</text>
<rect x="375" y="558" width="130" height="55" rx="6" fill="#dae8fc" stroke="#6c8ebf" stroke-width="1.5"/>
<text x="440" y="580.5" text-anchor="middle" font-size="10" font-weight="bold" fill="#333">Select application</text>
<text x="440" y="595.5" text-anchor="middle" font-size="10" fill="#555">to review</text>
<rect x="555" y="558" width="135" height="55" rx="6" fill="#dae8fc" stroke="#6c8ebf" stroke-width="1.5"/>
<text x="622.5" y="580.5" text-anchor="middle" font-size="10" font-weight="bold" fill="#333">Analyse financial</text>
<text x="622.5" y="595.5" text-anchor="middle" font-size="10" fill="#555">charts (Highcharts)</text>
<rect x="740" y="558" width="120" height="55" rx="6" fill="#dae8fc" stroke="#6c8ebf" stroke-width="1.5"/>
<text x="800" y="580.5" text-anchor="middle" font-size="10" font-weight="bold" fill="#333">Check credit</text>
<text x="800" y="595.5" text-anchor="middle" font-size="10" fill="#555">risk score</text>
<polygon points="973,548 1028,585.5 973,623 918,585.5" fill="#fff2cc" stroke="#d6b656" stroke-width="1.5"/>
<text x="973" y="580.5" text-anchor="middle" font-size="10" fill="#333">Approve</text>
<text x="973" y="595.5" text-anchor="middle" font-size="10" fill="#333">application?</text>
<rect x="912" y="668" width="125" height="50" rx="6" fill="#f8cecc" stroke="#b85450" stroke-width="1.5"/>
<text x="974.5" y="688" text-anchor="middle" font-size="10" font-weight="bold" fill="#333">Decline / request</text>
<text x="974.5" y="703" text-anchor="middle" font-size="10" fill="#555">more info</text>
<rect x="1085" y="558" width="135" height="55" rx="6" fill="#d5e8d4" stroke="#82b366" stroke-width="1.5"/>
<text x="1152.5" y="580.5" text-anchor="middle" font-size="10" font-weight="bold" fill="#333">Set credit limit</text>
<text x="1152.5" y="595.5" text-anchor="middle" font-size="10" fill="#555">&amp; log decision</text>
<rect x="1270" y="558" width="130" height="55" rx="6" fill="#dae8fc" stroke="#6c8ebf" stroke-width="1.5"/>
<text x="1335" y="580.5" text-anchor="middle" font-size="10" font-weight="bold" fill="#333">MSME notified</text>
<text x="1335" y="595.5" text-anchor="middle" font-size="10" fill="#555">of decision</text>
<ellipse cx="1525" cy="585.5" rx="70" ry="27.5" fill="#d5e8d4" stroke="#82b366" stroke-width="1.5"/>
<text x="1525" y="580.5" text-anchor="middle" font-size="10" fill="#333">Decision archived</text>
<text x="1525" y="595.5" text-anchor="middle" font-size="10" fill="#333">✓ 2,500+ managed</text>
<line x1="155" y1="585.5" x2="195" y2="585.5" stroke="#666666" stroke-width="1.5" marker-end="url(#ah-g)"/>
<line x1="325" y1="585.5" x2="375" y2="585.5" stroke="#666666" stroke-width="1.5" marker-end="url(#ah-g)"/>
<line x1="505" y1="585.5" x2="555" y2="585.5" stroke="#666666" stroke-width="1.5" marker-end="url(#ah-g)"/>
<line x1="690" y1="585.5" x2="740" y2="585.5" stroke="#666666" stroke-width="1.5" marker-end="url(#ah-g)"/>
<line x1="860" y1="585.5" x2="918" y2="585.5" stroke="#666666" stroke-width="1.5" marker-end="url(#ah-g)"/>
<line x1="973" y1="623" x2="973" y2="668" stroke="#b85450" stroke-width="1.5" marker-end="url(#ah-r)"/>
<text x="978" y="649.5" font-size="9" fill="#b85450">No</text>
<line x1="1028" y1="585.5" x2="1085" y2="585.5" stroke="#82b366" stroke-width="1.5" marker-end="url(#ah-gr)"/>
<text x="1056.5" y="580.5" text-anchor="middle" font-size="9" fill="#82b366">Yes</text>
<line x1="1220" y1="585.5" x2="1270" y2="585.5" stroke="#666666" stroke-width="1.5" marker-end="url(#ah-g)"/>
<line x1="1400" y1="585.5" x2="1455" y2="585.5" stroke="#82b366" stroke-width="1.5" marker-end="url(#ah-gr)"/>
</svg>