<?xml version="1.0" encoding="UTF-8"?>
<svg xmlns="http://www.w3.org/2000/svg" viewBox="0 0 1654 1169" font-family="system-ui,-apple-system,BlinkMacSystemFont,sans-serif">
<defs>
  <marker id="ah-g"  viewBox="0 0 10 10" refX="9" refY="5" markerWidth="7" markerHeight="7" orient="auto"><path d="M0,0 L10,5 L0,10 Z" fill="#666666"/></marker>
  <marker id="ah-b"  viewBox="0 0 10 10" refX="9" refY="5" markerWidth="7" markerHeight="7" orient="auto"><path d="M0,0 L10,5 L0,10 Z" fill="#6c8ebf"/></marker>
  <marker id="ah-gr" viewBox="0 0 10 10" refX="9" refY="5" markerWidth="7" markerHeight="7" orient="auto"><path d="M0,0 L10,5 L0,10 Z" fill="#82b366"/></marker>
  <marker id="ah-r"  viewBox="0 0 10 10" refX="9" refY="5" markerWidth="7" markerHeight="7" orient="auto"><path d="M0,0 L10,5 L0,10 Z" fill="#b85450"/></marker>
</defs>
<rect width="1654" height="1169" fill="white"/>
<line x1="40" y1="488" x2="1614" y2="488" stroke="#ccc" stroke-width="1" stroke-dasharray="6 4"/>
<text x="40" y="34" font-size="13" font-weight="bold" fill="#333">SYSTEM ARCHITECTURE</text>
<text x="40" y="516" font-size="13" font-weight="bold" fill="#333">USER JOURNEY — EXPORTER CREATING A TRADE</text>
<text x="40" y="65" font-size="9" font-style="italic" fill="#aaa">Client Layer</text>
<text x="40" y="222" font-size="9" font-style="italic" fill="#aaa">API Layer</text>
<text x="40" y="370" font-size="9" font-style="italic" fill="#aaa">Integrations (15+)</text>
<rect x="130" y="58" width="165" height="55" rx="6" fill="#dae8fc" stroke="#6c8ebf" stroke-width="1.5"/>
<text x="212.5" y="80.5" text-anchor="middle" font-size="10" font-weight="bold" fill="#333">Exporter Portal</text>
<text x="212.5" y="95.5" text-anchor="middle" font-size="10" fill="#555">React.js · 200+ exporters</text>
<rect x="335" y="58" width="165" height="55" rx="6" fill="#dae8fc" stroke="#6c8ebf" stroke-width="1.5"/>
<text x="417.5" y="80.5" text-anchor="middle" font-size="10" font-weight="bold" fill="#333">Importer Portal</text>
<text x="417.5" y="95.5" text-anchor="middle" font-size="10" fill="#555">React.js · 200+ importers</text>
<rect x="255" y="215" width="220" height="55" rx="6" fill="#fff2cc" stroke="#d6b656" stroke-width="1.5"/>
<text x="365" y="237.5" text-anchor="middle" font-size="10" font-weight="bold" fill="#333">REST API</text>
<text x="365" y="252.5" text-anchor="middle" font-size="10" fill="#555">Auth · RBAC · Trade management</text>
<rect x="130" y="371" width="130" height="47" fill="#d5e8d4" stroke="#82b366" stroke-width="1.5"/>
<ellipse cx="195" cy="371" rx="64" ry="9" fill="#d5e8d4" stroke="#82b366" stroke-width="1.5"/>
<ellipse cx="195" cy="418" rx="64" ry="9" fill="#d5e8d4" stroke="#82b366" stroke-width="1.5"/>
<text x="195" y="389.5" text-anchor="middle" font-size="10" font-weight="bold" fill="#333">MongoDB</text>
<text x="195" y="404.5" text-anchor="middle" font-size="10" fill="#555">Trades · Docs · Users</text>
<rect x="300" y="371" width="120" height="47" fill="#d5e8d4" stroke="#82b366" stroke-width="1.5"/>
<ellipse cx="360" cy="371" rx="59" ry="9" fill="#d5e8d4" stroke="#82b366" stroke-width="1.5"/>
<ellipse cx="360" cy="418" rx="59" ry="9" fill="#d5e8d4" stroke="#82b366" stroke-width="1.5"/>
<text x="360" y="389.5" text-anchor="middle" font-size="10" font-weight="bold" fill="#333">Redis</text>
<text x="360" y="404.5" text-anchor="middle" font-size="10" fill="#555">Cache · Sessions</text>
<rect x="460" y="362" width="140" height="65" rx="6" fill="#d5e8d4" stroke="#82b366" stroke-width="1.5"/>
<text x="530" y="389.5" text-anchor="middle" font-size="10" font-weight="bold" fill="#333">Logistics APIs</text>
<text x="530" y="404.5" text-anchor="middle" font-size="10" fill="#555">Shipping &amp; tracking</text>
<rect x="640" y="362" width="140" height="65" rx="6" fill="#d5e8d4" stroke="#82b366" stroke-width="1.5"/>
<text x="710" y="389.5" text-anchor="middle" font-size="10" font-weight="bold" fill="#333">Banking APIs</text>
<text x="710" y="404.5" text-anchor="middle" font-size="10" fill="#555">Payment &amp; FX rates</text>
<rect x="820" y="362" width="140" height="65" rx="6" fill="#d5e8d4" stroke="#82b366" stroke-width="1.5"/>
<text x="890" y="389.5" text-anchor="middle" font-size="10" font-weight="bold" fill="#333">Compliance APIs</text>
<text x="890" y="404.5" text-anchor="middle" font-size="10" fill="#555">KYC · AML checks</text>
<line x1="212" y1="113" x2="365" y2="215" stroke="#6c8ebf" stroke-width="1.5" marker-end="url(#ah-b)"/>
<line x1="417" y1="113" x2="365" y2="215" stroke="#6c8ebf" stroke-width="1.5" marker-end="url(#ah-b)"/>
<path d="M365,270 L365,316 L195,316 L195,362" fill="none" stroke="#82b366" stroke-width="1.5" marker-end="url(#ah-gr)"/>
<path d="M365,270 L365,316 L360,316 L360,362" fill="none" stroke="#82b366" stroke-width="1.5" marker-end="url(#ah-gr)"/>
<path d="M365,270 L365,316 L530,316 L530,362" fill="none" stroke="#82b366" stroke-width="1.5" marker-end="url(#ah-gr)"/>
<path d="M365,270 L365,316 L710,316 L710,362" fill="none" stroke="#82b366" stroke-width="1.5" marker-end="url(#ah-gr)"/>
<path d="M365,270 L365,316 L890,316 L890,362" fill="none" stroke="#82b366" stroke-width="1.5" marker-end="url(#ah-gr)"/>
<ellipse cx="95" cy="585.5" rx="55" ry="27.5" fill="#d5e8d4" stroke="#82b366" stroke-width="1.5"/>
<text x="95" y="580.5" text-anchor="middle" font-size="10" fill="#333">Exporter</text>
<text x="95" y="595.5" text-anchor="middle" font-size="10" fill="#333">logs in</text>
<rect x="190" y="558" width="120" height="55" rx="6" fill="#dae8fc" stroke="#6c8ebf" stroke-width="1.5"/>
<text x="250" y="580.5" text-anchor="middle" font-size="10" font-weight="bold" fill="#333">Create trade</text>
<text x="250" y="595.5" text-anchor="middle" font-size="10" fill="#555">record</text>
<rect x="350" y="558" width="120" height="55" rx="6" fill="#dae8fc" stroke="#6c8ebf" stroke-width="1.5"/>
<text x="410" y="580.5" text-anchor="middle" font-size="10" font-weight="bold" fill="#333">Upload trade</text>
<text x="410" y="595.5" text-anchor="middle" font-size="10" fill="#555">documents</text>
<rect x="510" y="558" width="120" height="55" rx="6" fill="#dae8fc" stroke="#6c8ebf" stroke-width="1.5"/>
<text x="570" y="580.5" text-anchor="middle" font-size="10" font-weight="bold" fill="#333">Invite importer</text>
<text x="570" y="595.5" text-anchor="middle" font-size="10" fill="#555">to review</text>
<polygon points="740,548 795,585.5 740,623 685,585.5" fill="#fff2cc" stroke="#d6b656" stroke-width="1.5"/>
<text x="740" y="580.5" text-anchor="middle" font-size="10" fill="#333">Importer</text>
<text x="740" y="595.5" text-anchor="middle" font-size="10" fill="#333">accepts?</text>
<rect x="679" y="668" width="120" height="50" rx="6" fill="#f8cecc" stroke="#b85450" stroke-width="1.5"/>
<text x="739" y="688" text-anchor="middle" font-size="10" font-weight="bold" fill="#333">Revision</text>
<text x="739" y="703" text-anchor="middle" font-size="10" fill="#555">requested</text>
<rect x="850" y="558" width="140" height="55" rx="6" fill="#d5e8d4" stroke="#82b366" stroke-width="1.5"/>
<text x="920" y="580.5" text-anchor="middle" font-size="10" font-weight="bold" fill="#333">Trade finalised</text>
<text x="920" y="595.5" text-anchor="middle" font-size="10" fill="#555">payment confirmed</text>
<rect x="1040" y="558" width="120" height="55" rx="6" fill="#dae8fc" stroke="#6c8ebf" stroke-width="1.5"/>
<text x="1100" y="580.5" text-anchor="middle" font-size="10" font-weight="bold" fill="#333">Shipping</text>
<text x="1100" y="595.5" text-anchor="middle" font-size="10" fill="#555">initiated</text>
<rect x="1210" y="558" width="130" height="55" rx="6" fill="#dae8fc" stroke="#6c8ebf" stroke-width="1.5"/>
<text x="1275" y="580.5" text-anchor="middle" font-size="10" font-weight="bold" fill="#333">Container tracking</text>
<text x="1275" y="595.5" text-anchor="middle" font-size="10" fill="#555">activated</text>
<ellipse cx="1465" cy="585.5" rx="65" ry="27.5" fill="#d5e8d4" stroke="#82b366" stroke-width="1.5"/>
<text x="1465" y="580.5" text-anchor="middle" font-size="10" fill="#333">Trade archived</text>
<text x="1465" y="595.5" text-anchor="middle" font-size="10" fill="#333">✓ 200+ users</text>
<line x1="150" y1="585.5" x2="190" y2="585.5" stroke="#666666" stroke-width="1.5" marker-end="url(#ah-g)"/>
<line x1="310" y1="585.5" x2="350" y2="585.5" stroke="#666666" stroke-width="1.5" marker-end="url(#ah-g)"/>
<line x1="470" y1="585.5" x2="510" y2="585.5" stroke="#666666" stroke-width="1.5" marker-end="url(#ah-g)"/>
<line x1="630" y1="585.5" x2="685" y2="585.5" stroke="#666666" stroke-width="1.5" marker-end="url(#ah-g)"/>
<line x1="740" y1="623" x2="740" y2="668" stroke="#b85450" stroke-width="1.5" marker-end="url(#ah-r)"/>
<text x="745" y="649.5" font-size="9" fill="#b85450">No</text>
<line x1="795" y1="585.5" x2="850" y2="585.5" stroke="#82b366" stroke-width="1.5" marker-end="url(#ah-gr)"/>
<text x="822.5" y="580.5" text-anchor="middle" font-size="9" fill="#82b366">Yes</text>
<line x1="990" y1="585.5" x2="1040" y2="585.5" stroke="#666666" stroke-width="1.5" marker-end="url(#ah-g)"/>
<line x1="1160" y1="585.5" x2="1210" y2="585.5" stroke="#666666" stroke-width="1.5" marker-end="url(#ah-g)"/>
<line x1="1340" y1="585.5" x2="1400" y2="585.5" stroke="#82b366" stroke-width="1.5" marker-end="url(#ah-gr)"/>
<path d="M739,718 L739,742 L410,742 L410,613" fill="none" stroke="#b85450" stroke-width="1.5" stroke-dasharray="4 2" marker-end="url(#ah-r)"/>
<text x="575" y="754" text-anchor="middle" font-size="9" fill="#b85450">revise &amp; re-upload</text>
</svg>