<?xml version="1.0" encoding="UTF-8"?>
<svg xmlns="http://www.w3.org/2000/svg" viewBox="0 0 1654 900" font-family="system-ui,-apple-system,BlinkMacSystemFont,sans-serif">
<defs>
  <marker id="ah-g"  viewBox="0 0 10 10" refX="9" refY="5" markerWidth="7" markerHeight="7" orient="auto"><path d="M0,0 L10,5 L0,10 Z" fill="#666666"/></marker>
  <marker id="ah-b"  viewBox="0 0 10 10" refX="9" refY="5" markerWidth="7" markerHeight="7" orient="auto"><path d="M0,0 L10,5 L0,10 Z" fill="#6c8ebf"/></marker>
  <marker id="ah-gr" viewBox="0 0 10 10" refX="9" refY="5" markerWidth="7" markerHeight="7" orient="auto"><path d="M0,0 L10,5 L0,10 Z" fill="#82b366"/></marker>
  <marker id="ah-r"  viewBox="0 0 10 10" refX="9" refY="5" markerWidth="7" markerHeight="7" orient="auto"><path d="M0,0 L10,5 L0,10 Z" fill="#b85450"/></marker>
  <marker id="ah-y"  viewBox="0 0 10 10" refX="9" refY="5" markerWidth="7" markerHeight="7" orient="auto"><path d="M0,0 L10,5 L0,10 Z" fill="#d6b656"/></marker>
</defs>
<rect width="1654" height="900" fill="white"/>

<!-- Section dividers -->
<line x1="40" y1="488" x2="1614" y2="488" stroke="#ccc" stroke-width="1" stroke-dasharray="6 4"/>
<line x1="40" y1="643" x2="1614" y2="643" stroke="#eeeeee" stroke-width="1" stroke-dasharray="4 4"/>

<!-- ===== TOP: SYSTEM ARCHITECTURE ===== -->
<text x="40" y="34" font-size="13" font-weight="bold" fill="#333">SYSTEM ARCHITECTURE</text>
<text x="40" y="65" font-size="9" font-style="italic" fill="#aaa">Client Layer</text>
<text x="40" y="215" font-size="9" font-style="italic" fill="#aaa">BFF / API Layer</text>
<text x="40" y="368" font-size="9" font-style="italic" fill="#aaa">Services &amp; Storage</text>

<!-- Client: Shopify Admin App -->
<rect x="100" y="78" width="175" height="55" rx="6" fill="#dae8fc" stroke="#6c8ebf" stroke-width="1.5"/>
<text x="187.5" y="100.5" text-anchor="middle" font-size="10" font-weight="bold" fill="#333">Shopify Admin App</text>
<text x="187.5" y="115.5" text-anchor="middle" font-size="10" fill="#555">Next.js · Embedded</text>

<!-- Client: Theme Extension -->
<rect x="310" y="78" width="175" height="55" rx="6" fill="#dae8fc" stroke="#6c8ebf" stroke-width="1.5"/>
<text x="397.5" y="100.5" text-anchor="middle" font-size="10" font-weight="bold" fill="#333">Theme Extension</text>
<text x="397.5" y="115.5" text-anchor="middle" font-size="10" fill="#555">Preact · Storefront embed</text>

<!-- Client: Super Admin -->
<rect x="520" y="78" width="175" height="55" rx="6" fill="#dae8fc" stroke="#6c8ebf" stroke-width="1.5"/>
<text x="607.5" y="100.5" text-anchor="middle" font-size="10" font-weight="bold" fill="#333">Super Admin</text>
<text x="607.5" y="115.5" text-anchor="middle" font-size="10" fill="#555">Next.js · Internal ops</text>

<!-- API: Next.js BFF Proxy -->
<rect x="185" y="225" width="220" height="55" rx="6" fill="#fff2cc" stroke="#d6b656" stroke-width="1.5"/>
<text x="295" y="247.5" text-anchor="middle" font-size="10" font-weight="bold" fill="#333">Next.js BFF Proxy</text>
<text x="295" y="262.5" text-anchor="middle" font-size="10" fill="#555">Shopify JWT · session auth</text>

<!-- API: NestJS Backend -->
<rect x="460" y="225" width="230" height="55" rx="6" fill="#fff2cc" stroke="#d6b656" stroke-width="1.5"/>
<text x="575" y="247.5" text-anchor="middle" font-size="10" font-weight="bold" fill="#333">NestJS Backend</text>
<text x="575" y="262.5" text-anchor="middle" font-size="10" fill="#555">REST · Auth · Job queue</text>

<!-- Service: MongoDB (cylinder) -->
<rect x="71" y="378" width="118" height="47" fill="#d5e8d4" stroke="#82b366" stroke-width="1.5"/>
<ellipse cx="130" cy="378" rx="59" ry="9" fill="#d5e8d4" stroke="#82b366" stroke-width="1.5"/>
<ellipse cx="130" cy="425" rx="59" ry="9" fill="#d5e8d4" stroke="#82b366" stroke-width="1.5"/>
<text x="130" y="397" text-anchor="middle" font-size="10" font-weight="bold" fill="#333">MongoDB</text>
<text x="130" y="412" text-anchor="middle" font-size="10" fill="#555">Primary DB</text>

<!-- Service: RunPod / ComfyUI -->
<rect x="225" y="370" width="155" height="65" rx="6" fill="#d5e8d4" stroke="#82b366" stroke-width="1.5"/>
<text x="302.5" y="397" text-anchor="middle" font-size="10" font-weight="bold" fill="#333">RunPod / ComfyUI</text>
<text x="302.5" y="412" text-anchor="middle" font-size="10" fill="#555">GPU · 500+ images/mo</text>

<!-- Service: Razorpay -->
<rect x="400" y="370" width="145" height="65" rx="6" fill="#d5e8d4" stroke="#82b366" stroke-width="1.5"/>
<text x="472.5" y="397" text-anchor="middle" font-size="10" font-weight="bold" fill="#333">Razorpay</text>
<text x="472.5" y="412" text-anchor="middle" font-size="10" fill="#555">Subscriptions · HMAC</text>

<!-- Service: AWS S3 -->
<rect x="568" y="370" width="130" height="65" rx="6" fill="#d5e8d4" stroke="#82b366" stroke-width="1.5"/>
<text x="633" y="397" text-anchor="middle" font-size="10" font-weight="bold" fill="#333">AWS S3</text>
<text x="633" y="412" text-anchor="middle" font-size="10" fill="#555">Image storage</text>

<!-- Service: Redis (cylinder) -->
<rect x="726" y="378" width="118" height="47" fill="#d5e8d4" stroke="#82b366" stroke-width="1.5"/>
<ellipse cx="785" cy="378" rx="59" ry="9" fill="#d5e8d4" stroke="#82b366" stroke-width="1.5"/>
<ellipse cx="785" cy="425" rx="59" ry="9" fill="#d5e8d4" stroke="#82b366" stroke-width="1.5"/>
<text x="785" y="397" text-anchor="middle" font-size="10" font-weight="bold" fill="#333">Redis</text>
<text x="785" y="412" text-anchor="middle" font-size="10" fill="#555">Cache · sessions</text>

<!-- Arrows: Client → BFF / NestJS -->
<line x1="187.5" y1="133" x2="295" y2="225" stroke="#6c8ebf" stroke-width="1.5" marker-end="url(#ah-b)"/>
<line x1="397.5" y1="133" x2="295" y2="225" stroke="#6c8ebf" stroke-width="1.5" marker-end="url(#ah-b)"/>
<line x1="607.5" y1="133" x2="575" y2="225" stroke="#6c8ebf" stroke-width="1.5" marker-end="url(#ah-b)"/>

<!-- BFF → NestJS -->
<line x1="405" y1="252.5" x2="460" y2="252.5" stroke="#d6b656" stroke-width="1.5" marker-end="url(#ah-y)"/>

<!-- NestJS → Services (fan out through y=330) -->
<path d="M575,280 L575,330 L130,330 L130,369" fill="none" stroke="#82b366" stroke-width="1.5" marker-end="url(#ah-gr)"/>
<path d="M575,280 L575,330 L302.5,330 L302.5,370" fill="none" stroke="#82b366" stroke-width="1.5" marker-end="url(#ah-gr)"/>
<path d="M575,280 L575,330 L472.5,330 L472.5,370" fill="none" stroke="#82b366" stroke-width="1.5" marker-end="url(#ah-gr)"/>
<path d="M575,280 L575,330 L633,330 L633,370" fill="none" stroke="#82b366" stroke-width="1.5" marker-end="url(#ah-gr)"/>
<path d="M575,280 L575,330 L785,330 L785,369" fill="none" stroke="#82b366" stroke-width="1.5" marker-end="url(#ah-gr)"/>

<!-- Razorpay webhook callback -->
<rect x="400" y="448" width="145" height="26" rx="4" fill="#f8cecc" stroke="#b85450" stroke-width="1"/>
<text x="472.5" y="465" text-anchor="middle" font-size="9" fill="#666">Webhook · HMAC verify</text>
<line x1="472.5" y1="435" x2="472.5" y2="448" stroke="#b85450" stroke-width="1.5" marker-end="url(#ah-r)"/>

<!-- ===== BOTTOM: SHOPPER TRY-ON ===== -->
<text x="40" y="516" font-size="13" font-weight="bold" fill="#333">USER JOURNEY — SHOPPER TRY-ON</text>

<!-- Shopper nodes (y-center = 580) -->
<ellipse cx="90" cy="580" rx="70" ry="27.5" fill="#f5f5f5" stroke="#666666" stroke-width="1.5"/>
<text x="90" y="575" text-anchor="middle" font-size="10" fill="#333">Visits product</text>
<text x="90" y="590" text-anchor="middle" font-size="10" fill="#333">page</text>

<rect x="183" y="552.5" width="145" height="55" rx="6" fill="#dae8fc" stroke="#6c8ebf" stroke-width="1.5"/>
<text x="255.5" y="575" text-anchor="middle" font-size="10" font-weight="bold" fill="#333">Clicks Try On</text>
<text x="255.5" y="590" text-anchor="middle" font-size="10" fill="#555">button</text>

<rect x="363" y="552.5" width="155" height="55" rx="6" fill="#dae8fc" stroke="#6c8ebf" stroke-width="1.5"/>
<text x="440.5" y="575" text-anchor="middle" font-size="10" font-weight="bold" fill="#333">Uploads photo</text>
<text x="440.5" y="590" text-anchor="middle" font-size="10" fill="#555">+ garment</text>

<rect x="553" y="552.5" width="145" height="55" rx="6" fill="#fff2cc" stroke="#d6b656" stroke-width="1.5"/>
<text x="625.5" y="575" text-anchor="middle" font-size="10" font-weight="bold" fill="#333">BFF validates</text>
<text x="625.5" y="590" text-anchor="middle" font-size="10" fill="#555">session · proxy</text>

<rect x="733" y="552.5" width="155" height="55" rx="6" fill="#fff2cc" stroke="#d6b656" stroke-width="1.5"/>
<text x="810.5" y="575" text-anchor="middle" font-size="10" font-weight="bold" fill="#333">NestJS queues</text>
<text x="810.5" y="590" text-anchor="middle" font-size="10" fill="#555">GPU job</text>

<polygon points="975,552.5 1030,580 975,607.5 920,580" fill="#d5e8d4" stroke="#82b366" stroke-width="1.5"/>
<text x="975" y="575" text-anchor="middle" font-size="10" fill="#333">ComfyUI</text>
<text x="975" y="590" text-anchor="middle" font-size="10" fill="#333">runs on GPU</text>

<rect x="1063" y="552.5" width="155" height="55" rx="6" fill="#d5e8d4" stroke="#82b366" stroke-width="1.5"/>
<text x="1140.5" y="575" text-anchor="middle" font-size="10" font-weight="bold" fill="#333">Result returned</text>
<text x="1140.5" y="590" text-anchor="middle" font-size="10" fill="#555">+ watermarked</text>

<ellipse cx="1330" cy="580" rx="85" ry="27.5" fill="#d5e8d4" stroke="#82b366" stroke-width="1.5"/>
<text x="1330" y="575" text-anchor="middle" font-size="10" fill="#333">Try-on shown</text>
<text x="1330" y="590" text-anchor="middle" font-size="10" fill="#333">to shopper ✓</text>

<!-- Shopper arrows -->
<line x1="160" y1="580" x2="183" y2="580" stroke="#666666" stroke-width="1.5" marker-end="url(#ah-g)"/>
<line x1="328" y1="580" x2="363" y2="580" stroke="#666666" stroke-width="1.5" marker-end="url(#ah-g)"/>
<line x1="518" y1="580" x2="553" y2="580" stroke="#666666" stroke-width="1.5" marker-end="url(#ah-g)"/>
<line x1="698" y1="580" x2="733" y2="580" stroke="#666666" stroke-width="1.5" marker-end="url(#ah-g)"/>
<line x1="888" y1="580" x2="920" y2="580" stroke="#666666" stroke-width="1.5" marker-end="url(#ah-g)"/>
<line x1="1030" y1="580" x2="1063" y2="580" stroke="#82b366" stroke-width="1.5" marker-end="url(#ah-gr)"/>
<line x1="1218" y1="580" x2="1245" y2="580" stroke="#82b366" stroke-width="1.5" marker-end="url(#ah-gr)"/>

<!-- ===== MERCHANT SETUP FLOW ===== -->
<text x="40" y="668" font-size="13" font-weight="bold" fill="#333">MERCHANT SETUP FLOW</text>

<!-- Merchant nodes (y-center = 730) -->
<ellipse cx="90" cy="730" rx="70" ry="27.5" fill="#f5f5f5" stroke="#666666" stroke-width="1.5"/>
<text x="90" y="725" text-anchor="middle" font-size="10" fill="#333">Installs app</text>
<text x="90" y="740" text-anchor="middle" font-size="10" fill="#333">from Shopify</text>

<rect x="183" y="702.5" width="165" height="55" rx="6" fill="#dae8fc" stroke="#6c8ebf" stroke-width="1.5"/>
<text x="265.5" y="725" text-anchor="middle" font-size="10" font-weight="bold" fill="#333">Onboarding</text>
<text x="265.5" y="740" text-anchor="middle" font-size="10" fill="#555">4-step wizard</text>

<rect x="383" y="702.5" width="155" height="55" rx="6" fill="#fff2cc" stroke="#d6b656" stroke-width="1.5"/>
<text x="460.5" y="725" text-anchor="middle" font-size="10" font-weight="bold" fill="#333">Chooses plan</text>
<text x="460.5" y="740" text-anchor="middle" font-size="10" fill="#555">Razorpay billing</text>

<rect x="573" y="702.5" width="165" height="55" rx="6" fill="#dae8fc" stroke="#6c8ebf" stroke-width="1.5"/>
<text x="655.5" y="725" text-anchor="middle" font-size="10" font-weight="bold" fill="#333">Activates embed</text>
<text x="655.5" y="740" text-anchor="middle" font-size="10" fill="#555">theme extension</text>

<rect x="773" y="702.5" width="165" height="55" rx="6" fill="#dae8fc" stroke="#6c8ebf" stroke-width="1.5"/>
<text x="855.5" y="725" text-anchor="middle" font-size="10" font-weight="bold" fill="#333">Configures products</text>
<text x="855.5" y="740" text-anchor="middle" font-size="10" fill="#555">garment types</text>

<ellipse cx="1055" cy="730" rx="85" ry="27.5" fill="#d5e8d4" stroke="#82b366" stroke-width="1.5"/>
<text x="1055" y="725" text-anchor="middle" font-size="10" fill="#333">Dashboard live</text>
<text x="1055" y="740" text-anchor="middle" font-size="10" fill="#333">analytics ✓</text>

<!-- Merchant arrows -->
<line x1="160" y1="730" x2="183" y2="730" stroke="#666666" stroke-width="1.5" marker-end="url(#ah-g)"/>
<line x1="348" y1="730" x2="383" y2="730" stroke="#666666" stroke-width="1.5" marker-end="url(#ah-g)"/>
<line x1="538" y1="730" x2="573" y2="730" stroke="#666666" stroke-width="1.5" marker-end="url(#ah-g)"/>
<line x1="738" y1="730" x2="773" y2="730" stroke="#666666" stroke-width="1.5" marker-end="url(#ah-g)"/>
<line x1="938" y1="730" x2="970" y2="730" stroke="#82b366" stroke-width="1.5" marker-end="url(#ah-gr)"/>
</svg>
