<?xml version="1.0" encoding="UTF-8"?>
<svg xmlns="http://www.w3.org/2000/svg" viewBox="0 0 1654 1169" font-family="system-ui,-apple-system,BlinkMacSystemFont,sans-serif">
<defs>
  <marker id="ah-g"  viewBox="0 0 10 10" refX="9" refY="5" markerWidth="7" markerHeight="7" orient="auto"><path d="M0,0 L10,5 L0,10 Z" fill="#666666"/></marker>
  <marker id="ah-b"  viewBox="0 0 10 10" refX="9" refY="5" markerWidth="7" markerHeight="7" orient="auto"><path d="M0,0 L10,5 L0,10 Z" fill="#6c8ebf"/></marker>
  <marker id="ah-gr" viewBox="0 0 10 10" refX="9" refY="5" markerWidth="7" markerHeight="7" orient="auto"><path d="M0,0 L10,5 L0,10 Z" fill="#82b366"/></marker>
  <marker id="ah-r"  viewBox="0 0 10 10" refX="9" refY="5" markerWidth="7" markerHeight="7" orient="auto"><path d="M0,0 L10,5 L0,10 Z" fill="#b85450"/></marker>
</defs>
<rect width="1654" height="1169" fill="white"/>
<line x1="40" y1="488" x2="1614" y2="488" stroke="#ccc" stroke-width="1" stroke-dasharray="6 4"/>
<text x="40" y="34" font-size="13" font-weight="bold" fill="#333">SYSTEM ARCHITECTURE</text>
<text x="40" y="516" font-size="13" font-weight="bold" fill="#333">USER JOURNEY — STUDENT LEARNING FLOW</text>
<text x="40" y="65" font-size="9" font-style="italic" fill="#aaa">Client</text>
<text x="40" y="225" font-size="9" font-style="italic" fill="#aaa">API Layer</text>
<text x="40" y="372" font-size="9" font-style="italic" fill="#aaa">Services</text>
<rect x="130" y="55" width="185" height="65" rx="6" fill="#dae8fc" stroke="#6c8ebf" stroke-width="1.5"/>
<text x="222.5" y="82.5" text-anchor="middle" font-size="10" font-weight="bold" fill="#333">PW Gulf Web App</text>
<text x="222.5" y="97.5" text-anchor="middle" font-size="10" fill="#555">Next.js · SEO · 2M visitors/mo</text>
<rect x="365" y="72" width="88" height="28" rx="4" fill="#dae8fc" stroke="#6c8ebf" stroke-width="1.2"/>
<text x="409" y="90" text-anchor="middle" font-size="9" fill="#333">Courses</text>
<rect x="457" y="72" width="88" height="28" rx="4" fill="#dae8fc" stroke="#6c8ebf" stroke-width="1.2"/>
<text x="501" y="90" text-anchor="middle" font-size="9" fill="#333">Live Classes</text>
<rect x="549" y="72" width="88" height="28" rx="4" fill="#dae8fc" stroke="#6c8ebf" stroke-width="1.2"/>
<text x="593" y="90" text-anchor="middle" font-size="9" fill="#333">Tests / DPP</text>
<rect x="641" y="72" width="88" height="28" rx="4" fill="#dae8fc" stroke="#6c8ebf" stroke-width="1.2"/>
<text x="685" y="90" text-anchor="middle" font-size="9" fill="#333">Leaderboard</text>
<rect x="365" y="104" width="88" height="28" rx="4" fill="#dae8fc" stroke="#6c8ebf" stroke-width="1.2"/>
<text x="409" y="122" text-anchor="middle" font-size="9" fill="#333">Study Material</text>
<rect x="457" y="104" width="88" height="28" rx="4" fill="#dae8fc" stroke="#6c8ebf" stroke-width="1.2"/>
<text x="501" y="122" text-anchor="middle" font-size="9" fill="#333">Discussions</text>
<rect x="549" y="104" width="88" height="28" rx="4" fill="#dae8fc" stroke="#6c8ebf" stroke-width="1.2"/>
<text x="593" y="122" text-anchor="middle" font-size="9" fill="#333">Profile</text>
<rect x="641" y="104" width="88" height="28" rx="4" fill="#dae8fc" stroke="#6c8ebf" stroke-width="1.2"/>
<text x="685" y="122" text-anchor="middle" font-size="9" fill="#333">Notifications</text>
<rect x="355" y="218" width="190" height="55" rx="6" fill="#fff2cc" stroke="#d6b656" stroke-width="1.5"/>
<text x="450" y="240.5" text-anchor="middle" font-size="10" font-weight="bold" fill="#333">NestJS API</text>
<text x="450" y="255.5" text-anchor="middle" font-size="10" fill="#555">REST · Auth · Modular</text>
<rect x="165" y="371" width="140" height="47" fill="#d5e8d4" stroke="#82b366" stroke-width="1.5"/>
<ellipse cx="235" cy="371" rx="69" ry="9" fill="#d5e8d4" stroke="#82b366" stroke-width="1.5"/>
<ellipse cx="235" cy="418" rx="69" ry="9" fill="#d5e8d4" stroke="#82b366" stroke-width="1.5"/>
<text x="235" y="389.5" text-anchor="middle" font-size="10" font-weight="bold" fill="#333">MongoDB</text>
<text x="235" y="404.5" text-anchor="middle" font-size="10" fill="#555">Users · Courses · Progress</text>
<rect x="345" y="371" width="120" height="47" fill="#d5e8d4" stroke="#82b366" stroke-width="1.5"/>
<ellipse cx="405" cy="371" rx="59" ry="9" fill="#d5e8d4" stroke="#82b366" stroke-width="1.5"/>
<ellipse cx="405" cy="418" rx="59" ry="9" fill="#d5e8d4" stroke="#82b366" stroke-width="1.5"/>
<text x="405" y="389.5" text-anchor="middle" font-size="10" font-weight="bold" fill="#333">Redis</text>
<text x="405" y="404.5" text-anchor="middle" font-size="10" fill="#555">Session · Cache</text>
<rect x="505" y="362" width="120" height="65" rx="6" fill="#d5e8d4" stroke="#82b366" stroke-width="1.5"/>
<text x="565" y="389.5" text-anchor="middle" font-size="10" font-weight="bold" fill="#333">CDN</text>
<text x="565" y="404.5" text-anchor="middle" font-size="10" fill="#555">Video · Assets</text>
<rect x="665" y="362" width="130" height="65" rx="6" fill="#d5e8d4" stroke="#82b366" stroke-width="1.5"/>
<text x="730" y="389.5" text-anchor="middle" font-size="10" font-weight="bold" fill="#333">Notification</text>
<text x="730" y="404.5" text-anchor="middle" font-size="10" fill="#555">Microservice</text>
<line x1="222" y1="120" x2="450" y2="218" stroke="#6c8ebf" stroke-width="1.5" marker-end="url(#ah-b)"/>
<line x1="409" y1="120" x2="450" y2="218" stroke="#6c8ebf" stroke-width="1.5" marker-end="url(#ah-b)"/>
<path d="M450,273 L450,318 L235,318 L235,362" fill="none" stroke="#82b366" stroke-width="1.5" marker-end="url(#ah-gr)"/>
<path d="M450,273 L450,318 L405,318 L405,362" fill="none" stroke="#82b366" stroke-width="1.5" marker-end="url(#ah-gr)"/>
<path d="M450,273 L450,318 L565,318 L565,362" fill="none" stroke="#82b366" stroke-width="1.5" marker-end="url(#ah-gr)"/>
<path d="M450,273 L450,318 L730,318 L730,362" fill="none" stroke="#82b366" stroke-width="1.5" marker-end="url(#ah-gr)"/>
<ellipse cx="97.5" cy="585.5" rx="57.5" ry="27.5" fill="#d5e8d4" stroke="#82b366" stroke-width="1.5"/>
<text x="97.5" y="580.5" text-anchor="middle" font-size="10" fill="#333">Student opens</text>
<text x="97.5" y="595.5" text-anchor="middle" font-size="10" fill="#333">PW Gulf</text>
<rect x="195" y="558" width="120" height="55" rx="6" fill="#dae8fc" stroke="#6c8ebf" stroke-width="1.5"/>
<text x="255" y="580.5" text-anchor="middle" font-size="10" font-weight="bold" fill="#333">Login /</text>
<text x="255" y="595.5" text-anchor="middle" font-size="10" fill="#555">Register</text>
<rect x="355" y="558" width="130" height="55" rx="6" fill="#dae8fc" stroke="#6c8ebf" stroke-width="1.5"/>
<text x="420" y="580.5" text-anchor="middle" font-size="10" font-weight="bold" fill="#333">Browse modules</text>
<text x="420" y="595.5" text-anchor="middle" font-size="10" fill="#555">&amp; courses</text>
<rect x="525" y="558" width="130" height="55" rx="6" fill="#dae8fc" stroke="#6c8ebf" stroke-width="1.5"/>
<text x="590" y="580.5" text-anchor="middle" font-size="10" font-weight="bold" fill="#333">Enrol &amp; watch</text>
<text x="590" y="595.5" text-anchor="middle" font-size="10" fill="#555">video lecture</text>
<rect x="695" y="558" width="130" height="55" rx="6" fill="#dae8fc" stroke="#6c8ebf" stroke-width="1.5"/>
<text x="760" y="580.5" text-anchor="middle" font-size="10" font-weight="bold" fill="#333">Attempt</text>
<text x="760" y="595.5" text-anchor="middle" font-size="10" fill="#555">practice test</text>
<polygon points="930,548 985,585.5 930,623 875,585.5" fill="#fff2cc" stroke="#d6b656" stroke-width="1.5"/>
<text x="930" y="580.5" text-anchor="middle" font-size="10" fill="#333">Test</text>
<text x="930" y="595.5" text-anchor="middle" font-size="10" fill="#333">passed?</text>
<rect x="869" y="668" width="125" height="50" rx="6" fill="#f8cecc" stroke="#b85450" stroke-width="1.5"/>
<text x="931.5" y="688" text-anchor="middle" font-size="10" font-weight="bold" fill="#333">Review material</text>
<text x="931.5" y="703" text-anchor="middle" font-size="10" fill="#555">&amp; retry</text>
<rect x="1045" y="558" width="130" height="55" rx="6" fill="#d5e8d4" stroke="#82b366" stroke-width="1.5"/>
<text x="1110" y="580.5" text-anchor="middle" font-size="10" font-weight="bold" fill="#333">Score &amp; progress</text>
<text x="1110" y="595.5" text-anchor="middle" font-size="10" fill="#555">recorded</text>
<rect x="1225" y="558" width="130" height="55" rx="6" fill="#dae8fc" stroke="#6c8ebf" stroke-width="1.5"/>
<text x="1290" y="580.5" text-anchor="middle" font-size="10" font-weight="bold" fill="#333">Leaderboard</text>
<text x="1290" y="595.5" text-anchor="middle" font-size="10" fill="#555">position updated</text>
<ellipse cx="1475" cy="585.5" rx="60" ry="27.5" fill="#d5e8d4" stroke="#82b366" stroke-width="1.5"/>
<text x="1475" y="580.5" text-anchor="middle" font-size="10" fill="#333">DAU +25%</text>
<text x="1475" y="595.5" text-anchor="middle" font-size="10" fill="#333">in 3 months ✓</text>
<line x1="155" y1="585.5" x2="195" y2="585.5" stroke="#666666" stroke-width="1.5" marker-end="url(#ah-g)"/>
<line x1="315" y1="585.5" x2="355" y2="585.5" stroke="#666666" stroke-width="1.5" marker-end="url(#ah-g)"/>
<line x1="485" y1="585.5" x2="525" y2="585.5" stroke="#666666" stroke-width="1.5" marker-end="url(#ah-g)"/>
<line x1="655" y1="585.5" x2="695" y2="585.5" stroke="#666666" stroke-width="1.5" marker-end="url(#ah-g)"/>
<line x1="825" y1="585.5" x2="875" y2="585.5" stroke="#666666" stroke-width="1.5" marker-end="url(#ah-g)"/>
<line x1="930" y1="623" x2="930" y2="668" stroke="#b85450" stroke-width="1.5" marker-end="url(#ah-r)"/>
<text x="935" y="649.5" font-size="9" fill="#b85450">No</text>
<line x1="985" y1="585.5" x2="1045" y2="585.5" stroke="#82b366" stroke-width="1.5" marker-end="url(#ah-gr)"/>
<text x="1015" y="580.5" text-anchor="middle" font-size="9" fill="#82b366">Yes</text>
<line x1="1175" y1="585.5" x2="1225" y2="585.5" stroke="#666666" stroke-width="1.5" marker-end="url(#ah-g)"/>
<line x1="1355" y1="585.5" x2="1415" y2="585.5" stroke="#82b366" stroke-width="1.5" marker-end="url(#ah-gr)"/>
<path d="M931,718 L931,742 L590,742 L590,613" fill="none" stroke="#b85450" stroke-width="1.5" stroke-dasharray="4 2" marker-end="url(#ah-r)"/>
<text x="761" y="754" text-anchor="middle" font-size="9" fill="#b85450">retry</text>
</svg>