<?xml version="1.0" encoding="UTF-8"?>
<svg xmlns="http://www.w3.org/2000/svg" viewBox="0 0 1654 660" font-family="system-ui,-apple-system,BlinkMacSystemFont,sans-serif">
<defs>
  <marker id="ah-g"  viewBox="0 0 10 10" refX="9" refY="5" markerWidth="7" markerHeight="7" orient="auto"><path d="M0,0 L10,5 L0,10 Z" fill="#666666"/></marker>
  <marker id="ah-b"  viewBox="0 0 10 10" refX="9" refY="5" markerWidth="7" markerHeight="7" orient="auto"><path d="M0,0 L10,5 L0,10 Z" fill="#6c8ebf"/></marker>
  <marker id="ah-gr" viewBox="0 0 10 10" refX="9" refY="5" markerWidth="7" markerHeight="7" orient="auto"><path d="M0,0 L10,5 L0,10 Z" fill="#82b366"/></marker>
</defs>
<rect width="1654" height="660" fill="white"/>

<!-- Section divider -->
<line x1="40" y1="390" x2="1614" y2="390" stroke="#ccc" stroke-width="1" stroke-dasharray="6 4"/>

<!-- ===== TOP: SYSTEM ARCHITECTURE ===== -->
<text x="40" y="34" font-size="13" font-weight="bold" fill="#333">SYSTEM ARCHITECTURE</text>
<text x="40" y="65" font-size="9" font-style="italic" fill="#aaa">Client Layer</text>
<text x="40" y="230" font-size="9" font-style="italic" fill="#aaa">API Layer</text>
<text x="40" y="345" font-size="9" font-style="italic" fill="#aaa">Database</text>

<!-- Client: Super Admin App (wide box containing 5 page chips) -->
<rect x="100" y="78" width="480" height="110" rx="6" fill="#dae8fc" stroke="#6c8ebf" stroke-width="1.5"/>
<text x="340" y="100.5" text-anchor="middle" font-size="10" font-weight="bold" fill="#333">Super Admin App</text>
<text x="340" y="115.5" text-anchor="middle" font-size="10" fill="#555">Next.js 15 App Router · JWT auth</text>
<line x1="115" y1="125" x2="565" y2="125" stroke="#6c8ebf" stroke-width="0.75" stroke-opacity="0.4"/>
<!-- Page chips -->
<rect x="115" y="132" width="82" height="24" rx="4" fill="#c7dff7" stroke="#6c8ebf" stroke-width="1"/>
<text x="156" y="148.5" text-anchor="middle" font-size="9" fill="#333">Dashboard</text>
<rect x="208" y="132" width="68" height="24" rx="4" fill="#c7dff7" stroke="#6c8ebf" stroke-width="1"/>
<text x="242" y="148.5" text-anchor="middle" font-size="9" fill="#333">Stores</text>
<rect x="287" y="132" width="62" height="24" rx="4" fill="#c7dff7" stroke="#6c8ebf" stroke-width="1"/>
<text x="318" y="148.5" text-anchor="middle" font-size="9" fill="#333">Users</text>
<rect x="360" y="132" width="100" height="24" rx="4" fill="#c7dff7" stroke="#6c8ebf" stroke-width="1"/>
<text x="410" y="148.5" text-anchor="middle" font-size="9" fill="#333">Try-On Logs</text>
<rect x="471" y="132" width="88" height="24" rx="4" fill="#c7dff7" stroke="#6c8ebf" stroke-width="1"/>
<text x="515" y="148.5" text-anchor="middle" font-size="9" fill="#333">User Logs</text>

<!-- API: NestJS Backend -->
<rect x="155" y="240" width="370" height="55" rx="6" fill="#fff2cc" stroke="#d6b656" stroke-width="1.5"/>
<text x="340" y="262.5" text-anchor="middle" font-size="10" font-weight="bold" fill="#333">NestJS Backend (vton-backend)</text>
<text x="340" y="277.5" text-anchor="middle" font-size="10" fill="#555">REST · Auth guards · Admin-only routes</text>

<!-- Database: MongoDB (cylinder) -->
<rect x="281" y="355" width="118" height="47" fill="#d5e8d4" stroke="#82b366" stroke-width="1.5"/>
<ellipse cx="340" cy="355" rx="59" ry="9" fill="#d5e8d4" stroke="#82b366" stroke-width="1.5"/>
<ellipse cx="340" cy="402" rx="59" ry="9" fill="#d5e8d4" stroke="#82b366" stroke-width="1.5"/>
<text x="340" y="374" text-anchor="middle" font-size="10" font-weight="bold" fill="#333">MongoDB</text>
<text x="340" y="389" text-anchor="middle" font-size="10" fill="#555">Stores · Users · Sessions</text>

<!-- Arrows: Client → API → DB -->
<line x1="340" y1="188" x2="340" y2="240" stroke="#6c8ebf" stroke-width="1.5" marker-end="url(#ah-b)"/>
<line x1="340" y1="295" x2="340" y2="346" stroke="#82b366" stroke-width="1.5" marker-end="url(#ah-gr)"/>

<!-- ===== BOTTOM: OPERATOR JOURNEY ===== -->
<text x="40" y="415" font-size="13" font-weight="bold" fill="#333">OPERATOR JOURNEY</text>

<!-- Journey nodes (y-center = 500) -->
<ellipse cx="90" cy="500" rx="70" ry="27.5" fill="#f5f5f5" stroke="#666666" stroke-width="1.5"/>
<text x="90" y="495" text-anchor="middle" font-size="10" fill="#333">Operator</text>
<text x="90" y="510" text-anchor="middle" font-size="10" fill="#333">logs in</text>

<rect x="188" y="472.5" width="165" height="55" rx="6" fill="#dae8fc" stroke="#6c8ebf" stroke-width="1.5"/>
<text x="270.5" y="495" text-anchor="middle" font-size="10" font-weight="bold" fill="#333">Views platform</text>
<text x="270.5" y="510" text-anchor="middle" font-size="10" fill="#555">metrics dashboard</text>

<rect x="390" y="472.5" width="165" height="55" rx="6" fill="#dae8fc" stroke="#6c8ebf" stroke-width="1.5"/>
<text x="472.5" y="495" text-anchor="middle" font-size="10" font-weight="bold" fill="#333">Monitors stores</text>
<text x="472.5" y="510" text-anchor="middle" font-size="10" fill="#555">engagement metrics</text>

<rect x="592" y="472.5" width="165" height="55" rx="6" fill="#dae8fc" stroke="#6c8ebf" stroke-width="1.5"/>
<text x="674.5" y="495" text-anchor="middle" font-size="10" font-weight="bold" fill="#333">Reviews users</text>
<text x="674.5" y="510" text-anchor="middle" font-size="10" fill="#555">try-on activity</text>

<rect x="794" y="472.5" width="155" height="55" rx="6" fill="#dae8fc" stroke="#6c8ebf" stroke-width="1.5"/>
<text x="871.5" y="495" text-anchor="middle" font-size="10" font-weight="bold" fill="#333">Checks try-on</text>
<text x="871.5" y="510" text-anchor="middle" font-size="10" fill="#555">+ user logs</text>

<ellipse cx="1055" cy="500" rx="85" ry="27.5" fill="#d5e8d4" stroke="#82b366" stroke-width="1.5"/>
<text x="1055" y="495" text-anchor="middle" font-size="10" fill="#333">Platform health</text>
<text x="1055" y="510" text-anchor="middle" font-size="10" fill="#333">confirmed ✓</text>

<!-- Journey arrows -->
<line x1="160" y1="500" x2="188" y2="500" stroke="#666666" stroke-width="1.5" marker-end="url(#ah-g)"/>
<line x1="353" y1="500" x2="390" y2="500" stroke="#666666" stroke-width="1.5" marker-end="url(#ah-g)"/>
<line x1="555" y1="500" x2="592" y2="500" stroke="#666666" stroke-width="1.5" marker-end="url(#ah-g)"/>
<line x1="757" y1="500" x2="794" y2="500" stroke="#666666" stroke-width="1.5" marker-end="url(#ah-g)"/>
<line x1="949" y1="500" x2="970" y2="500" stroke="#82b366" stroke-width="1.5" marker-end="url(#ah-gr)"/>
</svg>
