<?xml version="1.0" encoding="UTF-8"?>
<svg xmlns="http://www.w3.org/2000/svg" viewBox="0 0 1654 1169" font-family="system-ui,-apple-system,BlinkMacSystemFont,sans-serif">
<defs>
  <marker id="ah-g"  viewBox="0 0 10 10" refX="9" refY="5" markerWidth="7" markerHeight="7" orient="auto"><path d="M0,0 L10,5 L0,10 Z" fill="#666666"/></marker>
  <marker id="ah-b"  viewBox="0 0 10 10" refX="9" refY="5" markerWidth="7" markerHeight="7" orient="auto"><path d="M0,0 L10,5 L0,10 Z" fill="#6c8ebf"/></marker>
  <marker id="ah-gr" viewBox="0 0 10 10" refX="9" refY="5" markerWidth="7" markerHeight="7" orient="auto"><path d="M0,0 L10,5 L0,10 Z" fill="#82b366"/></marker>
  <marker id="ah-r"  viewBox="0 0 10 10" refX="9" refY="5" markerWidth="7" markerHeight="7" orient="auto"><path d="M0,0 L10,5 L0,10 Z" fill="#b85450"/></marker>
</defs>
<rect width="1654" height="1169" fill="white"/>
<line x1="40" y1="488" x2="1614" y2="488" stroke="#ccc" stroke-width="1" stroke-dasharray="6 4"/>
<text x="40" y="34" font-size="13" font-weight="bold" fill="#333">SYSTEM ARCHITECTURE</text>
<text x="40" y="516" font-size="13" font-weight="bold" fill="#333">USER JOURNEY — MSME CREDIT APPLICATION</text>
<text x="40" y="55" font-size="9" font-style="italic" fill="#aaa">Portals</text>
<text x="40" y="210" font-size="9" font-style="italic" fill="#aaa">API Layer</text>
<text x="40" y="370" font-size="9" font-style="italic" fill="#aaa">Services</text>
<rect x="130" y="48" width="165" height="55" rx="6" fill="#dae8fc" stroke="#6c8ebf" stroke-width="1.5"/>
<text x="212.5" y="70.5" text-anchor="middle" font-size="10" font-weight="bold" fill="#333">MSME Portal</text>
<text x="212.5" y="85.5" text-anchor="middle" font-size="10" fill="#555">React.js · 7,000+ MSMEs</text>
<rect x="335" y="48" width="175" height="55" rx="6" fill="#dae8fc" stroke="#6c8ebf" stroke-width="1.5"/>
<text x="422.5" y="70.5" text-anchor="middle" font-size="10" font-weight="bold" fill="#333">Underwriter Dashboard</text>
<text x="422.5" y="85.5" text-anchor="middle" font-size="10" fill="#555">React.js · 2,500+ users</text>
<rect x="550" y="48" width="165" height="55" rx="6" fill="#dae8fc" stroke="#6c8ebf" stroke-width="1.5"/>
<text x="632.5" y="70.5" text-anchor="middle" font-size="10" font-weight="bold" fill="#333">Admin Panel</text>
<text x="632.5" y="85.5" text-anchor="middle" font-size="10" fill="#555">React.js · Management</text>
<rect x="285" y="203" width="240" height="55" rx="6" fill="#fff2cc" stroke="#d6b656" stroke-width="1.5"/>
<text x="405" y="225.5" text-anchor="middle" font-size="10" font-weight="bold" fill="#333">REST API</text>
<text x="405" y="240.5" text-anchor="middle" font-size="10" fill="#555">Auth · RBAC · Credit management</text>
<rect x="130" y="369" width="140" height="47" fill="#d5e8d4" stroke="#82b366" stroke-width="1.5"/>
<ellipse cx="200" cy="369" rx="69" ry="9" fill="#d5e8d4" stroke="#82b366" stroke-width="1.5"/>
<ellipse cx="200" cy="416" rx="69" ry="9" fill="#d5e8d4" stroke="#82b366" stroke-width="1.5"/>
<text x="200" y="387.5" text-anchor="middle" font-size="10" font-weight="bold" fill="#333">MongoDB</text>
<text x="200" y="402.5" text-anchor="middle" font-size="10" fill="#555">Applications · Decisions</text>
<rect x="310" y="360" width="140" height="65" rx="6" fill="#d5e8d4" stroke="#82b366" stroke-width="1.5"/>
<text x="380" y="387.5" text-anchor="middle" font-size="10" font-weight="bold" fill="#333">Credit Engine</text>
<text x="380" y="402.5" text-anchor="middle" font-size="10" fill="#555">Scoring · Risk model</text>
<rect x="490" y="360" width="140" height="65" rx="6" fill="#d5e8d4" stroke="#82b366" stroke-width="1.5"/>
<text x="560" y="387.5" text-anchor="middle" font-size="10" font-weight="bold" fill="#333">KYC Module</text>
<text x="560" y="402.5" text-anchor="middle" font-size="10" fill="#555">Identity verification</text>
<rect x="670" y="360" width="130" height="65" rx="6" fill="#d5e8d4" stroke="#82b366" stroke-width="1.5"/>
<text x="735" y="387.5" text-anchor="middle" font-size="10" font-weight="bold" fill="#333">AWS S3</text>
<text x="735" y="402.5" text-anchor="middle" font-size="10" fill="#555">GST · Bank statements</text>
<line x1="212" y1="103" x2="405" y2="203" stroke="#6c8ebf" stroke-width="1.5" marker-end="url(#ah-b)"/>
<line x1="422" y1="103" x2="405" y2="203" stroke="#6c8ebf" stroke-width="1.5" marker-end="url(#ah-b)"/>
<line x1="632" y1="103" x2="405" y2="203" stroke="#6c8ebf" stroke-width="1.5" marker-end="url(#ah-b)"/>
<path d="M405,258 L405,309 L200,309 L200,360" fill="none" stroke="#82b366" stroke-width="1.5" marker-end="url(#ah-gr)"/>
<path d="M405,258 L405,309 L380,309 L380,360" fill="none" stroke="#82b366" stroke-width="1.5" marker-end="url(#ah-gr)"/>
<path d="M405,258 L405,309 L560,309 L560,360" fill="none" stroke="#82b366" stroke-width="1.5" marker-end="url(#ah-gr)"/>
<path d="M405,258 L405,309 L735,309 L735,360" fill="none" stroke="#82b366" stroke-width="1.5" marker-end="url(#ah-gr)"/>
<ellipse cx="97.5" cy="585.5" rx="57.5" ry="27.5" fill="#d5e8d4" stroke="#82b366" stroke-width="1.5"/>
<text x="97.5" y="580.5" text-anchor="middle" font-size="10" fill="#333">MSME visits</text>
<text x="97.5" y="595.5" text-anchor="middle" font-size="10" fill="#333">PEMANT</text>
<rect x="195" y="558" width="120" height="55" rx="6" fill="#dae8fc" stroke="#6c8ebf" stroke-width="1.5"/>
<text x="255" y="580.5" text-anchor="middle" font-size="10" font-weight="bold" fill="#333">Register &amp;</text>
<text x="255" y="595.5" text-anchor="middle" font-size="10" fill="#555">KYC verify</text>
<rect x="355" y="558" width="130" height="55" rx="6" fill="#dae8fc" stroke="#6c8ebf" stroke-width="1.5"/>
<text x="420" y="580.5" text-anchor="middle" font-size="10" font-weight="bold" fill="#333">Submit financials</text>
<text x="420" y="595.5" text-anchor="middle" font-size="10" fill="#555">&amp; documents</text>
<rect x="535" y="558" width="120" height="55" rx="6" fill="#dae8fc" stroke="#6c8ebf" stroke-width="1.5"/>
<text x="595" y="580.5" text-anchor="middle" font-size="10" font-weight="bold" fill="#333">Underwriter</text>
<text x="595" y="595.5" text-anchor="middle" font-size="10" fill="#555">reviews</text>
<polygon points="767,548 822,585.5 767,623 712,585.5" fill="#fff2cc" stroke="#d6b656" stroke-width="1.5"/>
<text x="767" y="580.5" text-anchor="middle" font-size="10" fill="#333">Credit</text>
<text x="767" y="595.5" text-anchor="middle" font-size="10" fill="#333">approved?</text>
<rect x="706" y="668" width="125" height="50" rx="6" fill="#f8cecc" stroke="#b85450" stroke-width="1.5"/>
<text x="768.5" y="688" text-anchor="middle" font-size="10" font-weight="bold" fill="#333">Decline / request</text>
<text x="768.5" y="703" text-anchor="middle" font-size="10" fill="#555">more info</text>
<rect x="882" y="558" width="135" height="55" rx="6" fill="#d5e8d4" stroke="#82b366" stroke-width="1.5"/>
<text x="949.5" y="580.5" text-anchor="middle" font-size="10" font-weight="bold" fill="#333">Credit limit set</text>
<text x="949.5" y="595.5" text-anchor="middle" font-size="10" fill="#555">MSME notified</text>
<rect x="1067" y="558" width="120" height="55" rx="6" fill="#dae8fc" stroke="#6c8ebf" stroke-width="1.5"/>
<text x="1127" y="580.5" text-anchor="middle" font-size="10" font-weight="bold" fill="#333">MSME draws</text>
<text x="1127" y="595.5" text-anchor="middle" font-size="10" fill="#555">credit</text>
<rect x="1237" y="558" width="140" height="55" rx="6" fill="#dae8fc" stroke="#6c8ebf" stroke-width="1.5"/>
<text x="1307" y="580.5" text-anchor="middle" font-size="10" font-weight="bold" fill="#333">Repayment schedule</text>
<text x="1307" y="595.5" text-anchor="middle" font-size="10" fill="#555">generated</text>
<ellipse cx="1502" cy="585.5" rx="65" ry="27.5" fill="#d5e8d4" stroke="#82b366" stroke-width="1.5"/>
<text x="1502" y="580.5" text-anchor="middle" font-size="10" fill="#333">Active credit line</text>
<text x="1502" y="595.5" text-anchor="middle" font-size="10" fill="#333">✓ 7,000+ MSMEs</text>
<line x1="155" y1="585.5" x2="195" y2="585.5" stroke="#666666" stroke-width="1.5" marker-end="url(#ah-g)"/>
<line x1="315" y1="585.5" x2="355" y2="585.5" stroke="#666666" stroke-width="1.5" marker-end="url(#ah-g)"/>
<line x1="485" y1="585.5" x2="535" y2="585.5" stroke="#666666" stroke-width="1.5" marker-end="url(#ah-g)"/>
<line x1="655" y1="585.5" x2="712" y2="585.5" stroke="#666666" stroke-width="1.5" marker-end="url(#ah-g)"/>
<line x1="767" y1="623" x2="767" y2="668" stroke="#b85450" stroke-width="1.5" marker-end="url(#ah-r)"/>
<text x="772" y="649.5" font-size="9" fill="#b85450">No</text>
<line x1="822" y1="585.5" x2="882" y2="585.5" stroke="#82b366" stroke-width="1.5" marker-end="url(#ah-gr)"/>
<text x="852" y="580.5" text-anchor="middle" font-size="9" fill="#82b366">Yes</text>
<line x1="1017" y1="585.5" x2="1067" y2="585.5" stroke="#666666" stroke-width="1.5" marker-end="url(#ah-g)"/>
<line x1="1187" y1="585.5" x2="1237" y2="585.5" stroke="#666666" stroke-width="1.5" marker-end="url(#ah-g)"/>
<line x1="1377" y1="585.5" x2="1437" y2="585.5" stroke="#82b366" stroke-width="1.5" marker-end="url(#ah-gr)"/>
<path d="M768,718 L768,742 L420,742 L420,613" fill="none" stroke="#b85450" stroke-width="1.5" stroke-dasharray="4 2" marker-end="url(#ah-r)"/>
<text x="594" y="754" text-anchor="middle" font-size="9" fill="#b85450">resubmit</text>
</svg>