<?xml version="1.0" encoding="UTF-8"?>
<svg xmlns="http://www.w3.org/2000/svg" viewBox="0 0 1654 1169" font-family="system-ui,-apple-system,BlinkMacSystemFont,sans-serif">
<defs>
  <marker id="ah-g"  viewBox="0 0 10 10" refX="9" refY="5" markerWidth="7" markerHeight="7" orient="auto"><path d="M0,0 L10,5 L0,10 Z" fill="#666666"/></marker>
  <marker id="ah-b"  viewBox="0 0 10 10" refX="9" refY="5" markerWidth="7" markerHeight="7" orient="auto"><path d="M0,0 L10,5 L0,10 Z" fill="#6c8ebf"/></marker>
  <marker id="ah-gr" viewBox="0 0 10 10" refX="9" refY="5" markerWidth="7" markerHeight="7" orient="auto"><path d="M0,0 L10,5 L0,10 Z" fill="#82b366"/></marker>
  <marker id="ah-r"  viewBox="0 0 10 10" refX="9" refY="5" markerWidth="7" markerHeight="7" orient="auto"><path d="M0,0 L10,5 L0,10 Z" fill="#b85450"/></marker>
</defs>
<rect width="1654" height="1169" fill="white"/>
<line x1="40" y1="488" x2="1614" y2="488" stroke="#ccc" stroke-width="1" stroke-dasharray="6 4"/>
<text x="40" y="34" font-size="13" font-weight="bold" fill="#333">SYSTEM ARCHITECTURE</text>
<text x="40" y="516" font-size="13" font-weight="bold" fill="#333">USER JOURNEY — INITIATING A USD TRANSFER</text>
<text x="40" y="65" font-size="9" font-style="italic" fill="#aaa">Client</text>
<text x="40" y="225" font-size="9" font-style="italic" fill="#aaa">API Layer</text>
<text x="40" y="372" font-size="9" font-style="italic" fill="#aaa">Services</text>
<rect x="130" y="55" width="200" height="65" rx="6" fill="#dae8fc" stroke="#6c8ebf" stroke-width="1.5"/>
<text x="230" y="82.5" text-anchor="middle" font-size="10" font-weight="bold" fill="#333">Drip Switch Portal</text>
<text x="230" y="97.5" text-anchor="middle" font-size="10" fill="#555">React.js · TypeScript · Redux</text>
<rect x="235" y="218" width="260" height="55" rx="6" fill="#fff2cc" stroke="#d6b656" stroke-width="1.5"/>
<text x="365" y="240.5" text-anchor="middle" font-size="10" font-weight="bold" fill="#333">REST API</text>
<text x="365" y="255.5" text-anchor="middle" font-size="10" fill="#555">Auth · Transactions · Compliance</text>
<rect x="130" y="371" width="130" height="47" fill="#d5e8d4" stroke="#82b366" stroke-width="1.5"/>
<ellipse cx="195" cy="371" rx="64" ry="9" fill="#d5e8d4" stroke="#82b366" stroke-width="1.5"/>
<ellipse cx="195" cy="418" rx="64" ry="9" fill="#d5e8d4" stroke="#82b366" stroke-width="1.5"/>
<text x="195" y="389.5" text-anchor="middle" font-size="10" font-weight="bold" fill="#333">MongoDB</text>
<text x="195" y="404.5" text-anchor="middle" font-size="10" fill="#555">Transaction ledger</text>
<rect x="300" y="362" width="150" height="65" rx="6" fill="#d5e8d4" stroke="#82b366" stroke-width="1.5"/>
<text x="375" y="389.5" text-anchor="middle" font-size="10" font-weight="bold" fill="#333">KYC / Compliance</text>
<text x="375" y="404.5" text-anchor="middle" font-size="10" fill="#555">Identity verification</text>
<rect x="490" y="362" width="150" height="65" rx="6" fill="#d5e8d4" stroke="#82b366" stroke-width="1.5"/>
<text x="565" y="389.5" text-anchor="middle" font-size="10" font-weight="bold" fill="#333">Banking Integration</text>
<text x="565" y="404.5" text-anchor="middle" font-size="10" fill="#555">Wire transfer API</text>
<rect x="680" y="362" width="130" height="65" rx="6" fill="#d5e8d4" stroke="#82b366" stroke-width="1.5"/>
<text x="745" y="389.5" text-anchor="middle" font-size="10" font-weight="bold" fill="#333">FX Rate Service</text>
<text x="745" y="404.5" text-anchor="middle" font-size="10" fill="#555">Live USD rates</text>
<line x1="230" y1="120" x2="365" y2="218" stroke="#6c8ebf" stroke-width="1.5" marker-end="url(#ah-b)"/>
<path d="M365,273 L365,318 L195,318 L195,362" fill="none" stroke="#82b366" stroke-width="1.5" marker-end="url(#ah-gr)"/>
<path d="M365,273 L365,318 L375,318 L375,362" fill="none" stroke="#82b366" stroke-width="1.5" marker-end="url(#ah-gr)"/>
<path d="M365,273 L365,318 L565,318 L565,362" fill="none" stroke="#82b366" stroke-width="1.5" marker-end="url(#ah-gr)"/>
<path d="M365,273 L365,318 L745,318 L745,362" fill="none" stroke="#82b366" stroke-width="1.5" marker-end="url(#ah-gr)"/>
<ellipse cx="100" cy="585.5" rx="60" ry="27.5" fill="#d5e8d4" stroke="#82b366" stroke-width="1.5"/>
<text x="100" y="580.5" text-anchor="middle" font-size="10" fill="#333">User logs into</text>
<text x="100" y="595.5" text-anchor="middle" font-size="10" fill="#333">Drip Switch</text>
<rect x="200" y="558" width="120" height="55" rx="6" fill="#dae8fc" stroke="#6c8ebf" stroke-width="1.5"/>
<text x="260" y="580.5" text-anchor="middle" font-size="10" font-weight="bold" fill="#333">Initiate USD</text>
<text x="260" y="595.5" text-anchor="middle" font-size="10" fill="#555">transfer</text>
<rect x="360" y="558" width="130" height="55" rx="6" fill="#dae8fc" stroke="#6c8ebf" stroke-width="1.5"/>
<text x="425" y="580.5" text-anchor="middle" font-size="10" font-weight="bold" fill="#333">Enter amount &amp;</text>
<text x="425" y="595.5" text-anchor="middle" font-size="10" fill="#555">recipient details</text>
<polygon points="600,548 655,585.5 600,623 545,585.5" fill="#fff2cc" stroke="#d6b656" stroke-width="1.5"/>
<text x="600" y="580.5" text-anchor="middle" font-size="10" fill="#333">KYC</text>
<text x="600" y="595.5" text-anchor="middle" font-size="10" fill="#333">approved?</text>
<rect x="539" y="668" width="125" height="50" rx="6" fill="#f8cecc" stroke="#b85450" stroke-width="1.5"/>
<text x="601.5" y="688" text-anchor="middle" font-size="10" font-weight="bold" fill="#333">Request additional</text>
<text x="601.5" y="703" text-anchor="middle" font-size="10" fill="#555">documents</text>
<rect x="710" y="558" width="140" height="55" rx="6" fill="#dae8fc" stroke="#6c8ebf" stroke-width="1.5"/>
<text x="780" y="580.5" text-anchor="middle" font-size="10" font-weight="bold" fill="#333">Generate &amp;</text>
<text x="780" y="595.5" text-anchor="middle" font-size="10" fill="#555">confirm transaction</text>
<rect x="900" y="558" width="120" height="55" rx="6" fill="#fff2cc" stroke="#d6b656" stroke-width="1.5"/>
<text x="960" y="580.5" text-anchor="middle" font-size="10" font-weight="bold" fill="#333">Submit to</text>
<text x="960" y="595.5" text-anchor="middle" font-size="10" fill="#555">banking API</text>
<polygon points="1133,548 1188,585.5 1133,623 1078,585.5" fill="#fff2cc" stroke="#d6b656" stroke-width="1.5"/>
<text x="1133" y="580.5" text-anchor="middle" font-size="10" fill="#333">Bank</text>
<text x="1133" y="595.5" text-anchor="middle" font-size="10" fill="#333">confirms?</text>
<rect x="1072" y="668" width="125" height="50" rx="6" fill="#f8cecc" stroke="#b85450" stroke-width="1.5"/>
<text x="1134.5" y="688" text-anchor="middle" font-size="10" font-weight="bold" fill="#333">Rollback &amp;</text>
<text x="1134.5" y="703" text-anchor="middle" font-size="10" fill="#555">notify user</text>
<rect x="1248" y="558" width="140" height="55" rx="6" fill="#d5e8d4" stroke="#82b366" stroke-width="1.5"/>
<text x="1318" y="580.5" text-anchor="middle" font-size="10" font-weight="bold" fill="#333">Ledger updated</text>
<text x="1318" y="595.5" text-anchor="middle" font-size="10" fill="#555">receipt generated</text>
<ellipse cx="1513" cy="585.5" rx="65" ry="27.5" fill="#d5e8d4" stroke="#82b366" stroke-width="1.5"/>
<text x="1513" y="580.5" text-anchor="middle" font-size="10" fill="#333">$2M+ processed</text>
<text x="1513" y="595.5" text-anchor="middle" font-size="10" fill="#333">in 2 months ✓</text>
<line x1="160" y1="585.5" x2="200" y2="585.5" stroke="#666666" stroke-width="1.5" marker-end="url(#ah-g)"/>
<line x1="320" y1="585.5" x2="360" y2="585.5" stroke="#666666" stroke-width="1.5" marker-end="url(#ah-g)"/>
<line x1="490" y1="585.5" x2="545" y2="585.5" stroke="#666666" stroke-width="1.5" marker-end="url(#ah-g)"/>
<line x1="600" y1="623" x2="600" y2="668" stroke="#b85450" stroke-width="1.5" marker-end="url(#ah-r)"/>
<text x="605" y="649.5" font-size="9" fill="#b85450">No</text>
<line x1="655" y1="585.5" x2="710" y2="585.5" stroke="#82b366" stroke-width="1.5" marker-end="url(#ah-gr)"/>
<text x="682.5" y="580.5" text-anchor="middle" font-size="9" fill="#82b366">Yes</text>
<line x1="850" y1="585.5" x2="900" y2="585.5" stroke="#666666" stroke-width="1.5" marker-end="url(#ah-g)"/>
<line x1="1020" y1="585.5" x2="1078" y2="585.5" stroke="#666666" stroke-width="1.5" marker-end="url(#ah-g)"/>
<line x1="1133" y1="623" x2="1133" y2="668" stroke="#b85450" stroke-width="1.5" marker-end="url(#ah-r)"/>
<text x="1138" y="649.5" font-size="9" fill="#b85450">No</text>
<line x1="1188" y1="585.5" x2="1248" y2="585.5" stroke="#82b366" stroke-width="1.5" marker-end="url(#ah-gr)"/>
<text x="1218" y="580.5" text-anchor="middle" font-size="9" fill="#82b366">Yes</text>
<line x1="1388" y1="585.5" x2="1448" y2="585.5" stroke="#82b366" stroke-width="1.5" marker-end="url(#ah-gr)"/>
<path d="M601,718 L601,742 L425,742 L425,613" fill="none" stroke="#b85450" stroke-width="1.5" stroke-dasharray="4 2" marker-end="url(#ah-r)"/>
<text x="513" y="754" text-anchor="middle" font-size="9" fill="#b85450">resubmit docs</text>
</svg>