<svg xmlns="http://www.w3.org/2000/svg" viewBox="0 0 1600 1000" font-family="ui-sans-serif, system-ui, sans-serif">
  <rect width="1600" height="1000" fill="#F0F4FF"/>

  <!-- sidebar -->
  <rect x="0" y="0" width="220" height="1000" fill="#0F2167"/>
  <text x="32" y="50" font-size="16" font-weight="600" fill="#FFFFFF">HeliTaxii</text>
  <text x="32" y="68" font-size="9" letter-spacing="2" fill="#8BAED4">ADMIN PANEL</text>

  <g font-size="13">
    <rect x="14" y="112" width="192" height="36" rx="7" fill="#1E3A8A"/>
    <text x="40" y="135" fill="#FFFFFF" font-weight="500">Dashboard</text>
    <text x="40" y="181" fill="#8BAED4">Bookings</text>
    <text x="40" y="217" fill="#8BAED4">Flights</text>
    <text x="40" y="253" fill="#8BAED4">Inventory</text>
    <text x="40" y="289" fill="#8BAED4">Customers</text>
    <text x="40" y="325" fill="#8BAED4">Agents</text>
    <text x="40" y="361" fill="#8BAED4">Charter</text>
    <text x="40" y="397" fill="#8BAED4">Reports</text>
    <text x="40" y="433" fill="#8BAED4">Settings</text>
  </g>

  <!-- top bar -->
  <rect x="220" y="0" width="1380" height="72" fill="#FFFFFF"/>
  <line x1="220" y1="72" x2="1600" y2="72" stroke="#E0E7FF" stroke-width="1"/>
  <text x="260" y="40" font-size="18" font-weight="500" fill="#0F2167">Dashboard</text>
  <text x="260" y="60" font-size="11" fill="#6B8CC9">Fri, Apr 18 · Thumby Aviation</text>

  <rect x="1380" y="18" width="80" height="36" rx="8" fill="#F0F4FF"/>
  <circle cx="1540" cy="36" r="18" fill="#1E3A8A"/>
  <text x="1534" y="42" font-size="12" fill="#FFFFFF">NT</text>

  <!-- stat cards -->
  <g>
    <rect x="260" y="104" width="296" height="128" rx="12" fill="#FFFFFF" stroke="#E0E7FF" stroke-width="1"/>
    <rect x="260" y="104" width="6" height="128" rx="3" fill="#2563EB"/>
    <text x="286" y="138" font-size="10" letter-spacing="2" fill="#6B8CC9">BOOKINGS TODAY</text>
    <text x="286" y="192" font-size="42" font-weight="300" fill="#0F2167">38</text>
    <text x="286" y="218" font-size="12" fill="#2563EB">▲ 12% vs yesterday</text>
  </g>
  <g>
    <rect x="576" y="104" width="296" height="128" rx="12" fill="#FFFFFF" stroke="#E0E7FF" stroke-width="1"/>
    <rect x="576" y="104" width="6" height="128" rx="3" fill="#16A34A"/>
    <text x="602" y="138" font-size="10" letter-spacing="2" fill="#6B8CC9">GROSS REVENUE</text>
    <text x="602" y="192" font-size="42" font-weight="300" fill="#0F2167">₹14.2L</text>
    <text x="602" y="218" font-size="12" fill="#16A34A">▲ 8% this week</text>
  </g>
  <g>
    <rect x="892" y="104" width="296" height="128" rx="12" fill="#FFFFFF" stroke="#E0E7FF" stroke-width="1"/>
    <rect x="892" y="104" width="6" height="128" rx="3" fill="#D97706"/>
    <text x="918" y="138" font-size="10" letter-spacing="2" fill="#6B8CC9">SEAT UTILIZATION</text>
    <text x="918" y="192" font-size="42" font-weight="300" fill="#0F2167">72%</text>
    <text x="918" y="218" font-size="12" fill="#D97706">target 75%</text>
  </g>
  <g>
    <rect x="1208" y="104" width="352" height="128" rx="12" fill="#FFFFFF" stroke="#E0E7FF" stroke-width="1"/>
    <rect x="1208" y="104" width="6" height="128" rx="3" fill="#DC2626"/>
    <text x="1234" y="138" font-size="10" letter-spacing="2" fill="#6B8CC9">PENDING CHECK-INS</text>
    <text x="1234" y="192" font-size="42" font-weight="300" fill="#0F2167">11</text>
    <text x="1234" y="218" font-size="12" fill="#6B8CC9">across 4 helipads</text>
  </g>

  <!-- bookings table -->
  <rect x="260" y="268" width="1300" height="688" rx="12" fill="#FFFFFF" stroke="#E0E7FF" stroke-width="1"/>
  <text x="288" y="308" font-size="16" fill="#0F2167" font-weight="500">Recent Bookings</text>
  <text x="288" y="328" font-size="11" fill="#6B8CC9">All channels · last 24 h</text>

  <rect x="260" y="268" width="1300" height="52" rx="12" fill="#F8FAFF"/>
  <rect x="260" y="292" width="1300" height="28" fill="#F8FAFF"/>

  <g font-size="10" letter-spacing="1.5" fill="#6B8CC9">
    <text x="288" y="364">REF</text>
    <text x="400" y="364">CUSTOMER</text>
    <text x="620" y="364">ROUTE</text>
    <text x="860" y="364">DEPARTS</text>
    <text x="1060" y="364">SEATS</text>
    <text x="1180" y="364">AMOUNT</text>
    <text x="1368" y="364">STATUS</text>
  </g>
  <line x1="288" y1="378" x2="1532" y2="378" stroke="#E0E7FF" stroke-width="1"/>

  <g fill="#0F2167" font-size="13">
    <!-- row 1 -->
    <rect x="260" y="380" width="1300" height="48" fill="#FFFFFF"/>
    <text x="288" y="412">HT-10921</text>
    <text x="400" y="412">Anjali Verma</text>
    <text x="620" y="412">Gauchar → Badrinath</text>
    <text x="860" y="412">Today · 14:30</text>
    <text x="1060" y="412">2</text>
    <text x="1180" y="412">₹ 22,000</text>
    <rect x="1368" y="398" width="60" height="22" rx="11" fill="#DCFCE7"/>
    <text x="1378" y="414" font-size="10" fill="#15803D" letter-spacing="1">PAID</text>

    <!-- row 2 -->
    <rect x="260" y="428" width="1300" height="48" fill="#F8FAFF"/>
    <text x="288" y="460">HT-10920</text>
    <text x="400" y="460">Rohit Sharma</text>
    <text x="620" y="460">Gauchar → Badrinath</text>
    <text x="860" y="460">Today · 16:00</text>
    <text x="1060" y="460">3</text>
    <text x="1180" y="460">₹ 66,000</text>
    <rect x="1368" y="446" width="80" height="22" rx="11" fill="#FEF9C3"/>
    <text x="1378" y="462" font-size="10" fill="#854D0E" letter-spacing="1">PENDING</text>

    <!-- row 3 -->
    <rect x="260" y="476" width="1300" height="48" fill="#FFFFFF"/>
    <text x="288" y="508">HT-10919</text>
    <text x="400" y="508">Bhakti Patel</text>
    <text x="620" y="508">Badrinath → Gauchar</text>
    <text x="860" y="508">Today · 09:15</text>
    <text x="1060" y="508">1</text>
    <text x="1180" y="508">₹ 22,000</text>
    <rect x="1368" y="494" width="60" height="22" rx="11" fill="#DCFCE7"/>
    <text x="1378" y="510" font-size="10" fill="#15803D" letter-spacing="1">PAID</text>

    <!-- row 4 -->
    <rect x="260" y="524" width="1300" height="48" fill="#F8FAFF"/>
    <text x="288" y="556">HT-10918</text>
    <text x="400" y="556">Deepak Rao</text>
    <text x="620" y="556">Kedarnath → Dehradun</text>
    <text x="860" y="556">Apr 18 · 06:30</text>
    <text x="1060" y="556">2</text>
    <text x="1180" y="556">₹ 1,56,000</text>
    <rect x="1368" y="542" width="60" height="22" rx="11" fill="#DCFCE7"/>
    <text x="1378" y="558" font-size="10" fill="#15803D" letter-spacing="1">PAID</text>

    <!-- row 5 -->
    <rect x="260" y="572" width="1300" height="48" fill="#FFFFFF"/>
    <text x="288" y="604">HT-10917</text>
    <text x="400" y="604">Kiran Malhotra</text>
    <text x="620" y="604">Chandigarh → Manali</text>
    <text x="860" y="604">Apr 18 · 11:10</text>
    <text x="1060" y="604">4</text>
    <text x="1180" y="604">₹ 1,64,800</text>
    <rect x="1368" y="590" width="96" height="22" rx="11" fill="#FEE2E2"/>
    <text x="1378" y="606" font-size="10" fill="#991B1B" letter-spacing="1">CANCELLED</text>

    <!-- row 6 -->
    <rect x="260" y="620" width="1300" height="48" fill="#F8FAFF"/>
    <text x="288" y="652">HT-10916</text>
    <text x="400" y="652">Neha Kapoor</text>
    <text x="620" y="652">Gauchar → Badrinath</text>
    <text x="860" y="652">Apr 19 · 07:45</text>
    <text x="1060" y="652">2</text>
    <text x="1180" y="652">₹ 44,000</text>
    <rect x="1368" y="638" width="60" height="22" rx="11" fill="#DCFCE7"/>
    <text x="1378" y="654" font-size="10" fill="#15803D" letter-spacing="1">PAID</text>

    <!-- row 7 -->
    <rect x="260" y="668" width="1300" height="48" fill="#FFFFFF"/>
    <text x="288" y="700">HT-10915</text>
    <text x="400" y="700">Arjun Singh</text>
    <text x="620" y="700">Badrinath → Gauchar</text>
    <text x="860" y="700">Apr 19 · 13:00</text>
    <text x="1060" y="700">1</text>
    <text x="1180" y="700">₹ 22,000</text>
    <rect x="1368" y="686" width="60" height="22" rx="11" fill="#DCFCE7"/>
    <text x="1378" y="702" font-size="10" fill="#15803D" letter-spacing="1">PAID</text>
  </g>
</svg>
